<svg xmlns="http://www.w3.org/2000/svg" width="24" height="24" viewBox="0 0 24 24" fill="none">
  <g transform="translate(3, 3)">
    <path d="M7.00012 17.3424H1.00012V8.79451C1.00012 8.26017 1.00012 7.99286 1.06509 7.74422C1.12267 7.52387 1.21791 7.31536 1.34582 7.12693C1.49016 6.9143 1.69076 6.73798 2.09289 6.38611L6.89448 2.18472C7.63997 1.53243 8.01273 1.20626 8.43254 1.08211C8.80273 0.972631 9.19731 0.972631 9.5675 1.08211C9.98763 1.20635 10.3609 1.53283 11.1075 2.18611L15.9075 6.38611C16.3097 6.73797 16.5104 6.9143 16.6547 7.12693C16.7826 7.31535 16.8771 7.52387 16.9347 7.74422C16.9997 7.99286 17.0001 8.26017 17.0001 8.79451V17.3424H11.0001M7.00012 17.3424H11.0001M7.00012 17.3424V13.3424C7.00012 12.2378 7.89555 11.3424 9.00012 11.3424C10.1047 11.3424 11.0001 12.2378 11.0001 13.3424V17.3424" stroke="currentColor" stroke-width="2" stroke-linecap="round" stroke-linejoin="round"/>
  </g>
</svg>
