<svg xmlns="http://www.w3.org/2000/svg" width="24" height="24" viewBox="0 0 24 24" fill="none">
  <g transform="translate(2.25, 2.25)">
    <path d="M9.88684 0.000905957C4.40341 -0.0731566 -0.0731565 4.40341 0.000905957 9.88684C0.074031 15.1458 4.35606 19.4278 9.61497 19.5009C15.0993 19.5759 19.575 15.0993 19.5 9.61591C19.4278 4.35606 15.1457 0.074031 9.88684 0.000905957ZM15.8128 15.3408C15.7941 15.3609 15.7712 15.3768 15.7457 15.3871C15.7203 15.3975 15.6928 15.4021 15.6654 15.4007C15.6379 15.3993 15.6111 15.3918 15.5868 15.3789C15.5626 15.3659 15.5414 15.3478 15.525 15.3258C15.1057 14.7772 14.5922 14.3075 14.0086 13.9387C12.8151 13.1728 11.3029 12.7509 9.75091 12.7509C8.19887 12.7509 6.68669 13.1728 5.49325 13.9387C4.9096 14.3074 4.39614 14.7769 3.97684 15.3253C3.96037 15.3473 3.93926 15.3654 3.91499 15.3784C3.89073 15.3913 3.86392 15.3988 3.83645 15.4002C3.80899 15.4017 3.78154 15.397 3.75607 15.3867C3.73059 15.3763 3.7077 15.3605 3.68903 15.3403C2.31357 13.8555 1.53442 11.9153 1.50091 9.89153C1.4245 5.33013 5.16747 1.51216 9.73075 1.50091C14.294 1.48966 18.0009 5.19513 18.0009 9.75091C18.0025 11.8234 17.2209 13.82 15.8128 15.3408V15.3408Z" fill="currentColor"/>
  </g>
  <g transform="translate(8.81, 6.75)">
    <path d="M3.18697 0C2.2626 0 1.42682 0.346407 0.83291 0.975938C0.239004 1.60547 -0.0577142 2.47594 0.00931705 3.41016C0.145255 5.25 1.57072 6.75 3.18697 6.75C4.80322 6.75 6.22588 5.25 6.36463 3.41062C6.434 2.48531 6.13963 1.62281 5.53588 0.981563C4.93963 0.34875 4.10525 0 3.18697 0Z" fill="currentColor"/>
  </g>
</svg>
