<svg xmlns="http://www.w3.org/2000/svg" width="24" height="24" viewBox="0 0 24 24" fill="none">
  <g transform="translate(2, 4)">
    <path d="M19 15.9999C19 14.2583 17.3304 12.7767 15 12.2275M13 16C13 13.7909 10.3137 12 7 12C3.68629 12 1 13.7909 1 16M13 9C15.2091 9 17 7.20914 17 5C17 2.79086 15.2091 1 13 1M7 9C4.79086 9 3 7.20914 3 5C3 2.79086 4.79086 1 7 1C9.20914 1 11 2.79086 11 5C11 7.20914 9.20914 9 7 9Z" stroke="currentColor" stroke-width="2" stroke-linecap="round" stroke-linejoin="round"/>
  </g>
</svg>
