<svg width="24" height="24" viewBox="0 0 24 24" fill="none" xmlns="http://www.w3.org/2000/svg">
<path d="M6.5 3.75V14.75" stroke="#1C1C28" stroke-width="1.83333" stroke-linecap="round" stroke-linejoin="round"/>
<path d="M17.5 9.25C19.0188 9.25 20.25 8.01878 20.25 6.5C20.25 4.98122 19.0188 3.75 17.5 3.75C15.9812 3.75 14.75 4.98122 14.75 6.5C14.75 8.01878 15.9812 9.25 17.5 9.25Z" stroke="#1C1C28" stroke-width="1.83333" stroke-linecap="round" stroke-linejoin="round"/>
<path d="M6.5 20.25C8.01878 20.25 9.25 19.0188 9.25 17.5C9.25 15.9812 8.01878 14.75 6.5 14.75C4.98122 14.75 3.75 15.9812 3.75 17.5C3.75 19.0188 4.98122 20.25 6.5 20.25Z" stroke="#1C1C28" stroke-width="1.83333" stroke-linecap="round" stroke-linejoin="round"/>
<path d="M17.5 9.25C17.5 11.438 16.6308 13.5365 15.0836 15.0836C13.5365 16.6308 11.438 17.5 9.25 17.5" stroke="#1C1C28" stroke-width="1.83333" stroke-linecap="round" stroke-linejoin="round"/>
</svg>
