<svg width="24" height="24" viewBox="0 0 24 24" fill="none" xmlns="http://www.w3.org/2000/svg">
<path d="M21.2726 9.54436L14.9482 3.21919C14.1655 2.43874 13.1053 2.00049 11.9999 2.00049C10.8946 2.00049 9.83437 2.43874 9.05164 3.21919L2.7273 9.54436C2.49419 9.77597 2.30938 10.0516 2.18357 10.3551C2.05776 10.6587 1.99346 10.9842 1.99439 11.3128V19.4982C1.99439 20.1616 2.25793 20.7979 2.72703 21.267C3.19614 21.7361 3.83237 21.9996 4.49578 21.9996H19.5041C20.1675 21.9996 20.8037 21.7361 21.2729 21.267C21.742 20.7979 22.0055 20.1616 22.0055 19.4982V11.3128C22.0064 10.9842 21.9421 10.6587 21.8163 10.3551C21.6905 10.0516 21.5057 9.77597 21.2726 9.54436ZM14.5013 20.332H9.49856V17.0519C9.49856 16.3884 9.76209 15.7522 10.2312 15.2831C10.7003 14.814 11.3365 14.5505 11.9999 14.5505C12.6634 14.5505 13.2996 14.814 13.7687 15.2831C14.2378 15.7522 14.5013 16.3884 14.5013 17.0519V20.332ZM20.3379 19.4982C20.3379 19.7193 20.2501 19.9314 20.0937 20.0878C19.9373 20.2442 19.7252 20.332 19.5041 20.332H16.1689V17.0519C16.1689 15.9462 15.7297 14.8858 14.9479 14.1039C14.166 13.3221 13.1056 12.8829 11.9999 12.8829C10.8943 12.8829 9.83387 13.3221 9.05203 14.1039C8.2702 14.8858 7.83096 15.9462 7.83096 17.0519V20.332H4.49578C4.27465 20.332 4.06257 20.2442 3.9062 20.0878C3.74983 19.9314 3.66199 19.7193 3.66199 19.4982V11.3128C3.66276 11.0919 3.75053 10.8801 3.90629 10.7233L10.2306 4.40067C10.7006 3.93286 11.3368 3.67022 11.9999 3.67022C12.6631 3.67022 13.2992 3.93286 13.7693 4.40067L20.0936 10.7258C20.2488 10.882 20.3365 11.0927 20.3379 11.3128V19.4982Z" fill="currentColor"/>
</svg>
