<svg width="24" height="24" viewBox="0 0 24 24" fill="none" xmlns="http://www.w3.org/2000/svg">
<path d="M20.75 10.7505H3.25C2.55965 10.7505 2 11.3101 2 12.0005C2 12.6908 2.55965 13.2505 3.25 13.2505H20.75C21.4404 13.2505 22 12.6908 22 12.0005C22 11.3101 21.4404 10.7505 20.75 10.7505Z" fill="#1C1C28"/>
<path d="M3.25 7.41688H20.75C21.4404 7.41688 22 6.85723 22 6.16687C22 5.47652 21.4404 4.91687 20.75 4.91687H3.25C2.55965 4.91687 2 5.47652 2 6.16687C2 6.85723 2.55965 7.41688 3.25 7.41688Z" fill="#1C1C28"/>
<path d="M20.75 16.5831H3.25C2.55965 16.5831 2 17.1428 2 17.8331C2 18.5235 2.55965 19.0831 3.25 19.0831H20.75C21.4404 19.0831 22 18.5235 22 17.8331C22 17.1428 21.4404 16.5831 20.75 16.5831Z" fill="#1C1C28"/>
</svg>
