<svg xmlns="http://www.w3.org/2000/svg" width="24" height="24" viewBox="0 0 24 24" fill="none">
  <g transform="translate(2.0, 4.75)">
    <g>
<path d="M1.25 2.50001H18.75C19.4404 2.50001 20 1.94036 20 1.25C20 0.55965 19.4404 0 18.75 0H1.25C0.559648 0 0 0.55965 0 1.25C0 1.94036 0.559648 2.50001 1.25 2.50001Z" fill="currentColor"/>
<path d="M17 6.50001H3C2.44772 6.50001 2 6.94772 2 7.50001C2 8.05229 2.44772 8.50001 3 8.50001H17C17.5523 8.50001 18 8.05229 18 7.50001C18 6.94772 17.5523 6.50001 17 6.50001Z" fill="currentColor"/>
<path d="M14.375 12.5H5.625C5.27982 12.5 5 12.9477 5 13.5C5 14.0523 5.27982 14.5 5.625 14.5H14.375C14.7202 14.5 15 14.0523 15 13.5C15 12.9477 14.7202 12.5 14.375 12.5Z" fill="currentColor"/>
</g>
  </g>
</svg>
