<svg xmlns="http://www.w3.org/2000/svg" width="24" height="24" viewBox="0 0 24 24" fill="none">
  <g transform="translate(2.0, 4.917)">
    <g>
<path d="M18.75 5.83363H1.25C0.559648 5.83363 0 6.39328 0 7.08363C0 7.77398 0.559648 8.33363 1.25 8.33363H18.75C19.4404 8.33363 20 7.77398 20 7.08363C20 6.39328 19.4404 5.83363 18.75 5.83363Z" fill="currentColor"/>
<path d="M1.25 2.50001H18.75C19.4404 2.50001 20 1.94036 20 1.25C20 0.55965 19.4404 0 18.75 0H1.25C0.559648 0 0 0.55965 0 1.25C0 1.94036 0.559648 2.50001 1.25 2.50001Z" fill="currentColor"/>
<path d="M18.75 11.6664H1.25C0.559648 11.6664 0 12.226 0 12.9164C0 13.6067 0.559648 14.1664 1.25 14.1664H18.75C19.4404 14.1664 20 13.6067 20 12.9164C20 12.226 19.4404 11.6664 18.75 11.6664Z" fill="currentColor"/>
</g>
  </g>
</svg>
